<?xml version="1.0" encoding="UTF-8"?>
<svg xmlns="http://www.w3.org/2000/svg" xmlns:xlink="http://www.w3.org/1999/xlink" width="292px" height="54px" viewBox="0 0 292 54">
  <g id="Page-1" stroke="none" stroke-width="1" fill="none" fill-rule="evenodd">
    <g id="Home-(Positive)" transform="translate(-53.000000, -14.000000)">
      <g id="Menu" transform="translate(0.000000, -1.000000)">
        <g id="Positive-Logo" transform="translate(51.000000, 10.000000)">
          <g transform="translate(2.000000, 5.000000)" id="Shape">
            <path d="M66.7885182,23.6965809 C66.529616,26.2584837 65.8185186,28.7548007 64.6879435,31.0706765 C63.7636022,33.0013042 62.3416553,34.653538 60.5669688,35.8590503 C58.9306092,36.906568 57.0112303,37.4301617 55.0669909,37.3594074 C52.8658196,37.3541887 50.7874225,36.3491519 49.4226987,34.6300344 L47.0174605,47 L39,47 L45.4139684,10.464708 L52.8541718,10.464708 L52.4372638,12.9706236 C53.9528273,11.0507592 56.2865722,9.95131356 58.7389878,10.0018319 C61.0420053,9.9508926 63.2388415,10.9646923 64.6879435,12.7471662 C66.2454499,14.8945522 67.0561877,17.4893223 66.9969721,20.137223 C67.0006874,21.3268028 66.9310719,22.5154888 66.7885182,23.6965809 Z M58.9474418,20.392603 C58.8672672,17.7111137 57.9532767,16.3384465 56.2054703,16.2905628 C54.5271146,16.1985156 52.9222163,16.9851752 51.9722511,18.3655247 L50.0801304,28.8361021 C50.5424761,30.2745484 51.954253,31.1936482 53.4634988,31.038754 C56.3177147,31.038754 58.081556,28.6445671 58.7229529,23.6965809 C58.8833021,22.1323788 58.9474418,21.0470141 58.9474418,20.392603 Z" fill="#051C2C" fill-rule="nonzero"></path>
            <path d="M83.1007509,10.0123007 C85.2760065,9.99149234 87.4095574,10.5986424 89.2363788,11.7583321 C90.9751793,12.9047726 92.307667,14.553984 93.0491189,16.477336 C93.8674124,18.624734 94.1636378,20.9301069 93.9141944,23.2097815 L93.9141944,23.744602 C93.6203489,27.3908413 92.0130324,30.8149866 89.3805581,33.4028299 C86.8538748,35.8346163 83.4157711,37.1325962 79.8807477,36.9892728 C77.7230565,37.0082869 75.606877,36.4067941 73.7931795,35.2589714 C72.0536495,34.1133065 70.7209562,32.4638405 69.9804394,30.5399675 C69.142893,28.4136412 68.8353021,26.1214895 69.0833241,23.854712 C69.2978518,20.0447563 70.8815802,16.4329843 73.5528807,13.6616637 C76.0715486,11.1814197 79.5371777,9.85679564 83.1007509,10.0123007 Z M77.0932822,23.9176321 L77.0932822,25.3333333 C76.8529835,28.9040462 77.9743776,30.7129977 80.4094049,30.7759177 C83.6133882,30.8702978 85.4503386,28.3534957 85.9202562,23.2255115 L86.0163757,21.0390397 C86.1093209,19.8357219 85.8241592,18.6333635 85.1993599,17.5941669 C84.6396182,16.7494768 83.6784488,16.2449426 82.6521932,16.2571158 C81.1963742,16.194362 79.8101968,16.8719365 78.9836324,18.0503373 C77.8338663,19.80648 77.1813717,21.8317018 77.0932822,23.9176321 Z" fill="#051C2C" fill-rule="nonzero"></path>
            <path d="M109.618882,29.0192848 C109.839188,27.9677025 109.020909,27.1829396 107.164043,26.6493008 L105.464539,26.2255289 C103.175862,25.7407379 101.057712,24.6573301 99.3274409,23.0864772 C98.0716718,21.8496622 97.4071765,20.1356054 97.5020477,18.3778998 C97.5545117,15.9317683 98.7995879,13.6648231 100.838111,12.3038349 C103.135281,10.6946571 105.901788,9.88893637 108.706186,10.0123273 C111.373852,9.94873548 113.983259,10.7959735 116.102176,12.4137017 C117.984135,13.8890193 119.057426,16.1638357 118.997627,18.5505477 L111.129553,18.5505477 C111.129553,16.5101641 110.295537,15.411496 108.407199,15.411496 C107.607231,15.4119623 106.826891,15.6586105 106.172666,16.1177827 C105.511609,16.5409314 105.06459,17.2268664 104.945246,18.0012136 C104.677732,19.30392 105.82647,20.1828545 108.391463,20.6694075 C110.187047,21.0467636 111.923252,21.6644711 113.55292,22.5057527 C114.674755,23.1159453 115.626582,23.9951758 116.322482,25.0640798 C116.978602,26.1840533 117.285387,27.4735707 117.203706,28.7681607 C117.164848,30.3014586 116.610665,31.7772828 115.630091,32.9587946 C114.51958,34.30374 113.076934,35.3369326 111.444276,35.9565889 C109.526164,36.7047181 107.475866,37.0571152 105.417331,36.9924759 C103.604963,36.9902659 101.815517,36.5882848 100.177193,35.8153315 C98.6645472,35.1234373 97.3657434,34.0393965 96.4162534,32.6762799 C95.4975107,31.3407911 95.0039361,29.7599868 95,28.1403503 L102.364518,28.1403503 C102.234822,29.0859823 102.559548,30.0372767 103.240826,30.707518 C103.922104,31.3777593 104.880245,31.6885507 105.82647,31.5462213 C106.706788,31.5718954 107.575749,31.342955 108.328518,30.8870205 C108.999983,30.4701402 109.467417,29.7935532 109.618882,29.0192848 Z" fill="#051C2C" fill-rule="nonzero"></path>
            <path d="M128.887231,37 L121,37 L125.464173,10.7766737 L133.351404,10.7766737 L128.887231,37 Z M126.174024,4.14548772 C126.119986,3.02551081 126.572219,1.94098063 127.404432,1.1947686 C128.262043,0.400404608 129.393808,-0.0264184702 130.559324,0.00496251077 C131.705906,-0.0484340739 132.831002,0.330614395 133.714217,1.06785595 C134.526391,1.7652765 134.993459,2.78590604 134.991948,3.85993426 C135.066689,4.98476284 134.61795,6.08074985 133.777314,6.82651745 C132.919017,7.61804742 131.786306,8.03953132 130.622422,8.00045946 C129.506378,8.02725351 128.416846,7.65639387 127.546402,6.9534301 C126.687409,6.2766404 126.182156,5.24287282 126.174024,4.14548772 Z" fill="#051C2C" fill-rule="nonzero"></path>
            <path d="M147.99516,4 L146.879961,10.4809966 L151,10.4809966 L150.03969,16.0968116 L145.904163,16.0968116 L143.921588,28.1149703 C143.790726,28.7303826 143.844682,29.3715152 144.076476,29.9554475 C144.29332,30.380173 144.819942,30.6004011 145.625363,30.6318622 C146.303665,30.6340651 146.981407,30.5920304 147.654405,30.5060176 L147.096805,36.3735218 C145.742752,36.8214671 144.3228,37.0290033 142.899322,36.9870142 C140.865154,37.1129366 138.880396,36.318163 137.478219,34.816195 C136.221966,33.1941551 135.693745,31.1110774 136.022265,29.0745354 L138.097773,16.1597339 L135,16.1597339 L135.944821,10.5439189 L139.042594,10.5439189 L140.157793,4 L147.99516,4 Z" fill="#051C2C" fill-rule="nonzero"></path>
            <path d="M158.914046,37 L151,37 L155.513357,10.7768662 L163.349046,10.7768662 L158.914046,37 Z M156.202898,4.14572891 C156.148505,3.02233534 156.604543,1.93543095 157.440937,1.19503146 C158.290255,0.396260694 159.416472,-0.0312605874 160.575212,0.00523410155 C161.714514,-0.0497108721 162.832797,0.32951764 163.709488,1.06811974 C164.520467,1.76387469 164.990015,2.78407123 164.994541,3.86017755 C165.055372,4.98599991 164.605265,6.07836468 163.772173,6.82673896 C162.920379,7.61974401 161.79445,8.04145732 160.637898,8.00067236 C159.502474,8.04656451 158.389053,7.67462023 157.503622,6.95365068 C156.673721,6.26429747 156.195726,5.23243163 156.202898,4.14572891 Z" fill="#051C2C" fill-rule="nonzero"></path>
            <polygon fill="#051C2C" fill-rule="nonzero" points="175.653624 26.2637629 182.308531 10 191 10 178.45991 36 170.249519 36 166 10 174.290571 10"></polygon>
            <path d="M202.626035,36.9528793 C200.407086,36.9871373 198.221063,36.4167701 196.305128,35.3036565 C194.505508,34.2427919 193.064263,32.6735525 192.164934,30.7957806 C191.224879,28.8080095 190.842689,26.6046879 191.058775,24.4187854 L191.058775,23.7433893 C191.281334,19.9385822 192.867856,16.3389098 195.530817,13.5967419 C198.012005,11.1413797 201.420554,9.84094497 204.917364,10.0155721 C206.963059,9.99067074 208.968393,10.5820686 210.66939,11.7119157 C212.272333,12.8352446 213.491007,14.4192757 214.161691,16.2512054 C214.91927,18.3308109 215.168426,20.5596782 214.888595,22.7538556 L214.430329,26.0523014 L198.880898,26.0523014 C198.85685,27.2581935 199.265822,28.4331546 200.034463,29.3664541 C200.852168,30.2334637 201.999414,30.7181 203.194917,30.7015393 C205.623644,30.8265684 207.983721,29.8778866 209.642242,28.1099033 L212.976521,32.4921241 C211.928585,33.9359284 210.501929,35.0660178 208.852129,35.7591561 C207.02979,36.5611847 205.061418,36.9834872 203.068499,37 L202.626035,36.9528793 Z M204.601319,16.2512054 C203.52091,16.2070212 202.465984,16.5847277 201.662097,17.3035666 C200.655998,18.3396413 199.913723,19.5998153 199.497186,20.9789776 L207.39832,20.9789776 L207.540541,20.2878747 C207.618658,19.7671907 207.618658,19.2378703 207.540541,18.7171863 C207.375103,17.2497935 206.084442,16.1669403 204.601319,16.2512054 Z" fill="#051C2C" fill-rule="nonzero"></path>
            <path d="M233.851207,27.9227531 C234.171417,26.3174689 233.290839,24.9690302 231.177452,24.0540182 L227.559079,22.5611039 C222.478412,20.2816003 220.0715,17.1726999 220.338341,13.2344027 C220.421952,11.4728612 221.067352,9.78475725 222.179549,8.41855014 C223.431339,6.94988838 225.050457,5.84176568 226.870627,5.20798176 C228.956004,4.38867599 231.179292,3.97990451 233.418923,4.00401861 C236.253074,3.92803794 239.010626,4.93187106 241.135986,6.81326595 C243.093958,8.68738642 244.135356,11.3270973 243.985856,14.0370448 L236.49294,14.0370448 C236.594498,12.984871 236.316124,11.9310887 235.708425,11.0672691 C235.016984,10.2567932 233.983808,9.82218819 232.922597,9.8954116 C231.745271,9.85693014 230.582334,10.1637754 229.576402,10.7783179 C228.669139,11.3233691 228.043692,12.2376479 227.863278,13.2825612 C227.5911,14.7594227 228.679814,15.9633858 231.065379,16.9105035 C232.918905,17.5636235 234.71329,18.3745749 236.428898,19.3344826 C239.639007,20.9162775 241.584554,24.2793217 241.360133,27.8585417 C241.264445,29.6065311 240.645077,31.2849268 239.582967,32.6743943 C238.408926,34.1277521 236.8658,35.2368612 235.116036,35.8849627 C233.077224,36.6819032 230.899114,37.0586207 228.711835,36.9926088 C227.078035,36.9721273 225.457452,36.6958997 223.908684,36.1739138 C222.50196,35.6970254 221.209699,34.9316457 220.114194,33.926516 C217.952827,31.9133377 216.816741,29.0272493 217.024167,26.0766763 L224.581125,26.0766763 C224.40101,27.399055 224.739647,28.7399197 225.525745,29.8169884 C226.489098,30.7601489 227.820913,31.2248695 229.160129,31.0851629 C230.291561,31.1382955 231.411223,30.8351872 232.36223,30.2183095 C233.1361,29.6751182 233.669819,28.8522842 233.851207,27.9227531 Z" fill="#FDD756" fill-rule="nonzero"></path>
            <path d="M260.873647,27.8763119 C261.210665,26.2740698 260.311951,24.9281865 258.193552,24.0149085 L254.566597,22.5248234 C249.495279,20.2496397 247.071959,17.1412901 247.328735,13.215797 C247.412544,11.4575938 248.059474,9.77268885 249.174309,8.4090708 C250.432158,6.94663476 252.054112,5.84129678 253.876513,5.20458668 C255.966836,4.38683355 258.195396,3.97883672 260.440339,4.00290513 C263.257095,3.9389167 265.995099,4.9339781 268.111509,6.79080632 C270.091865,8.65715683 271.143574,11.3026916 270.984186,14.016918 L263.489549,14.016918 C263.576144,12.9680282 263.298464,11.9213458 262.703174,11.0527702 C262.00704,10.2480187 260.973612,9.81515801 259.910739,9.8831335 C258.725312,9.84251805 257.553857,10.1488296 256.540559,10.7643666 C255.631145,11.3083849 255.004214,12.2209311 254.823373,13.2638643 C254.550548,14.737927 255.641845,15.9396085 258.033067,16.8849313 C259.894554,17.5407907 261.698196,18.3500402 263.425355,19.3043168 C265.818699,20.4753521 267.563793,22.651564 268.18463,25.2393525 C268.805468,27.827141 268.23728,30.5565326 266.63505,32.6830381 C265.461547,34.130163 263.920912,35.2367337 262.173574,35.8875222 C260.129338,36.6808399 257.946496,37.0567689 255.754184,36.9930692 C254.116246,36.9755417 252.491367,36.6997607 250.939642,36.1759258 C249.523088,35.7036885 248.221777,34.9394537 247.120105,33.9327869 C244.959482,31.9194273 243.821853,29.0417211 244.022749,26.0978232 L251.597629,26.0978232 C251.417088,27.4176959 251.756527,28.7560196 252.544489,29.8310472 C253.511328,30.7704824 254.845365,31.2339971 256.187493,31.0968184 C257.321608,31.1498503 258.443926,30.8473164 259.397188,30.2316077 C260.186123,29.6762644 260.718199,28.8274791 260.873647,27.8763119 Z" fill="#FDD756" fill-rule="nonzero"></path>
            <polygon fill="#FDD756" fill-rule="nonzero" points="279.268945 31.064 292 31.064 290.985884 37 271 37 276.413819 5 283.77786 5"></polygon>
            <polygon fill="#FDD756" fill-rule="nonzero" points="19.1988988 22.8011012 19.1988988 14 13.7852719 14 13.7852719 22.8011012 5 22.8011012 5 28.2147281 13.7852719 28.2147281 13.7852719 37 19.1988988 37 19.1988988 28.2147281 28 28.2147281 28 22.8011012"></polygon>
            <path d="M17,9 C7.61115925,9 1.15009382e-15,16.6111593 0,26 C-1.15009382e-15,35.3888407 7.61115925,43 17,43 C26.3888407,43 34,35.3888407 34,26 C33.9911502,16.6148274 26.3851726,9.00884977 17,9 Z M17,41.1057602 C8.71174736,41.0614559 2.02118545,34.3206523 2.03888806,26.0323001 C2.05659066,17.743948 8.77588595,11.0317857 17.0642522,11.0228865 C25.3526185,11.0139872 32.086312,17.711705 32.121813,26 C32.1176006,30.0004297 30.5199744,33.834388 27.6822189,36.6540687 C24.8444634,39.4737493 21.0003749,41.046845 17,41.0254958 L17,41.1057602 Z" fill="#FDD756" fill-rule="nonzero"></path>
            <path d="M141.370068,50.7904421 L140.781753,54 L139,54 L140.580045,45.0000027 L143.521619,45.0000027 C144.243841,44.9989517 144.930878,45.306869 145.404226,45.8437524 C145.868918,46.4360949 146.074594,47.1862944 145.975731,47.9283106 C145.92787,48.7388563 145.559887,49.4988514 144.950383,50.0459571 C144.326423,50.5889378 143.513346,50.8734763 142.681169,50.8400745 L141.370068,50.7904421 Z M141.622203,49.2849346 L142.798832,49.2849279 C143.209179,49.2862402 143.595848,49.0959523 143.84099,48.7720604 C144.088402,48.3518899 144.194316,47.8654135 144.143551,47.3823549 C144.143721,47.1394531 144.067378,46.9024731 143.925035,46.7040463 C143.796585,46.5368889 143.599782,46.4339849 143.387147,46.4227964 L142.126472,46.4227964 L141.622203,49.2849346 Z" fill="#051C2C" fill-rule="nonzero"></path>
            <path d="M149.399817,53.9946765 C148.761825,54.0065247 148.14808,53.7325133 147.706101,53.2385031 C147.262478,52.663846 147.018744,51.9415352 147.016624,51.1952262 C146.994459,50.8953733 146.994459,50.5941067 147.016624,50.2942538 L147.226465,48.8301735 C147.315106,48.1076539 147.528603,47.40924 147.855987,46.7708078 C148.127588,46.2173429 148.530986,45.7510271 149.025101,45.4193491 C149.51057,45.1305953 150.059051,44.9861876 150.613897,45.0010404 C151.261985,44.9846255 151.883067,45.2796115 152.307614,45.8054801 C152.759145,46.39936 152.998329,47.1467581 152.982102,47.9131122 C153.005966,48.2290067 153.005966,48.5464565 152.982102,48.8623511 L152.802239,50.2138098 C152.70665,51.2524421 152.307988,52.2321611 151.663102,53.01326 C151.084152,53.6884638 150.253238,54.0487684 149.399817,53.9946765 Z M151.348341,48.8140847 C151.363516,48.4925149 151.363516,48.1703268 151.348341,47.848757 C151.348341,46.9638733 151.018591,46.4972983 150.434034,46.4812095 C150.009879,46.4480792 149.600495,46.6555888 149.354851,47.0282285 C149.029709,47.5634703 148.833955,48.1772485 148.785283,48.8140847 L148.590431,50.2942538 C148.573405,50.6050353 148.573405,50.9166223 148.590431,51.2274038 C148.590431,52.0640211 148.920181,52.4984186 149.519727,52.5305962 C149.923363,52.5523833 150.31269,52.3673119 150.568931,52.0318436 C150.897687,51.5164066 151.094135,50.9170988 151.1385,50.2942538 L151.348341,48.8140847 Z" fill="#051C2C" fill-rule="nonzero"></path>
            <polygon fill="#051C2C" fill-rule="nonzero" points="160.781431 50.6043956 162.32882 45 164 45 161.307544 54 159.651838 54 159.481625 48.7417582 157.764023 54 156.139265 54 156 45.032967 157.624758 45.032967 157.624758 50.6208791 159.234043 45 160.626692 45"></polygon>
            <polygon fill="#051C2C" fill-rule="nonzero" points="170.675127 50.0955882 168.147208 50.0955882 167.766497 52.4779412 170.812183 52.4779412 170.568528 54 166 54 167.431472 45 172 45 171.741117 46.5055147 168.695431 46.5055147 168.360406 48.6397059 170.888325 48.6397059"></polygon>
            <path d="M175.906501,50.6913114 L175.10573,50.6913114 L174.586712,54 L173,54 L174.393934,45.000367 L176.840734,45.000367 C177.457295,44.9886604 178.051569,45.2574344 178.486762,45.744822 C178.89015,46.2759395 179.068514,46.9753979 178.976122,47.6638613 C178.960622,48.768275 178.386292,49.7678095 177.493214,50.2446384 L178.293984,53.9007393 L178.293984,54 L176.588639,54 L175.906501,50.6913114 Z M175.328167,49.1693146 L176.173425,49.1693146 C176.532541,49.1763648 176.871408,48.9842446 177.077999,48.6564679 C177.300845,48.2797316 177.409955,47.8334123 177.38941,47.3826228 C177.38941,46.8366892 177.166974,46.5554507 176.751759,46.5223638 L175.743381,46.5223638 L175.328167,49.1693146 Z" fill="#051C2C" fill-rule="nonzero"></path>
            <polygon fill="#051C2C" fill-rule="nonzero" points="184.720812 50.0625 182.192893 50.0625 181.812183 52.4448529 184.857868 52.4448529 184.568528 54 180 54 181.431472 45 186 45 185.756345 46.5055147 182.71066 46.5055147 182.360406 48.6397059 184.888325 48.6397059"></polygon>
            <path d="M187,53.9991208 L188.4116,45.0001064 L190.438897,45.0001064 C190.975677,44.9949942 191.500567,45.1742373 191.940599,45.5129179 C192.356351,45.8495309 192.661932,46.3254409 192.811586,46.869387 C192.99291,47.493937 193.044237,48.1554491 192.961756,48.8048367 L192.781552,50.1116789 C192.684977,51.1792323 192.267432,52.1806545 191.595207,52.9569555 C190.959473,53.6448601 190.098425,54.020683 189.207502,53.9991208 L187,53.9991208 Z M189.793165,46.5054562 L188.847093,52.4772287 L189.252553,52.4772287 C189.731348,52.5078439 190.199846,52.3158129 190.544016,51.9478749 C190.887355,51.4718434 191.100874,50.8981682 191.159714,50.2936443 L191.354935,48.8379214 C191.378068,48.4910002 191.378068,48.1426772 191.354935,47.7957561 C191.361269,47.4647197 191.260086,47.1420717 191.069612,46.8859293 C190.864198,46.6699952 190.587343,46.5563769 190.303744,46.5716254 L189.793165,46.5054562 Z" fill="#051C2C" fill-rule="nonzero"></path>
            <path d="M199,53.995921 L200.405652,45.0069709 L202.648714,45.0069709 C203.297357,44.9565479 203.93902,45.1810755 204.443164,45.6348755 C204.865303,46.1039689 205.064497,46.7642951 204.981498,47.4194465 C204.939342,48.3009249 204.437343,49.0749336 203.695476,49.4023031 C203.979466,49.5330561 204.205205,49.7824957 204.323534,50.0963029 C204.463982,50.4782082 204.5154,50.8929687 204.473071,51.3025407 C204.453402,52.0511145 204.162457,52.7595898 203.665569,53.2688735 C203.12514,53.7761905 202.429759,54.0362614 201.721582,53.995921 L199,53.995921 Z M201.213154,50.0797791 L200.839311,52.4757309 L201.766443,52.4757309 C202.092218,52.4916442 202.404621,52.3313712 202.603853,52.0461119 C202.831424,51.7024348 202.942564,51.2813738 202.917881,50.856398 C202.917881,50.3606838 202.738437,50.1128267 202.364593,50.0797791 L201.213154,50.0797791 Z M201.422507,48.7578747 L202.170194,48.7578747 C202.527027,48.7685432 202.868634,48.5980708 203.097326,48.2952082 C203.307235,47.9690485 203.402879,47.5697895 203.366494,47.1715894 C203.363143,46.9827379 203.288594,46.8040069 203.160832,46.6785167 C203.03307,46.5530265 202.863697,46.4921728 202.693575,46.5106372 L201.766443,46.5106372 L201.422507,48.7578747 Z" fill="#051C2C" fill-rule="nonzero"></path>
            <polygon fill="#051C2C" fill-rule="nonzero" points="210.333333 49.0276243 212.166667 45 214 45 210.969697 50.8342541 210.333333 54 208.681818 54 209.227273 50.6850829 208 45.0331492 209.712121 45.0331492"></polygon>
            <path d="M224.474904,50.9532658 C224.424574,51.8085133 224.071154,52.6123921 223.484982,53.2049115 C222.912207,53.7642302 222.146362,54.0493362 221.368072,53.9929876 C220.718533,54.019449 220.092174,53.7359634 219.66236,53.2209947 C219.221926,52.6381865 218.994871,51.9074224 219.022718,51.1623472 C218.992427,50.8576039 218.992427,50.5503491 219.022718,50.2456057 L219.235932,48.7981192 C219.33089,47.7496765 219.735827,46.7593662 220.393379,45.9674788 C220.959885,45.3194341 221.767195,44.9666506 222.601667,45.0024878 C223.285705,44.9895505 223.9373,45.3098808 224.368297,45.8709797 C224.82308,46.5316358 225.044042,47.3398135 224.99271,48.1547918 L223.347916,48.1547918 L223.347916,47.4792981 C223.347916,46.8038044 223.028095,46.4499744 222.449371,46.4338912 C222.034083,46.4017878 221.63203,46.5958851 221.383302,46.9485531 C221.067319,47.4814255 220.883965,48.089979 220.850267,48.7177033 L220.652282,50.2295225 C220.606956,50.538639 220.576457,50.849978 220.560905,51.1623472 C220.560905,52.0308391 220.850267,52.4811683 221.42899,52.5133346 C221.762489,52.543211 222.09294,52.4268868 222.342764,52.191671 C222.616241,51.8333009 222.780804,51.3960316 222.814881,50.9371826 L224.474904,50.9532658 Z" fill="#051C2C" fill-rule="nonzero"></path>
            <path d="M229.426468,53.9966743 C228.781647,54.0130479 228.160056,53.7386502 227.713373,53.2404382 C227.26861,52.6657335 227.024249,51.9433627 227.022123,51.1969919 C226.992626,50.8974731 226.992626,50.5954634 227.022123,50.2959447 L227.217476,48.8317429 C227.318483,48.1099903 227.5372,47.412869 227.863644,46.7722065 C228.370411,45.6495632 229.449935,44.9547684 230.613614,45.0022923 C231.267331,44.987786 231.89389,45.2820314 232.32671,45.8067987 C232.762883,46.4094099 232.995905,47.1522534 232.987905,47.9146056 C233.004032,48.2308092 233.004032,48.5477196 232.987905,48.8639232 L232.792552,50.215494 C232.695074,51.2507183 232.30147,52.2284727 231.665515,53.0151764 C231.090703,53.679632 230.271428,54.0387657 229.426468,53.9966743 Z M231.364972,48.8156528 C231.405268,48.4954201 231.430346,48.1732023 231.440108,47.8502451 C231.440108,46.965288 231.124537,46.4986743 230.538478,46.4825842 C230.109693,46.4531476 229.696369,46.6592718 229.441496,47.0296485 C229.115518,47.5649347 228.919261,48.1787638 228.870464,48.8156528 L228.675111,50.2959447 C228.648892,50.6063871 228.648892,50.9187297 228.675111,51.2291721 C228.675111,52.0658588 229.005708,52.5002923 229.591767,52.5324725 C229.996894,52.5569019 230.388289,52.3713088 230.643668,52.0336786 C230.973268,51.5181989 231.170222,50.9188413 231.2147,50.2959447 L231.364972,48.8156528 Z" fill="#051C2C" fill-rule="nonzero"></path>
            <polygon fill="#051C2C" fill-rule="nonzero" points="238.65035 45 239.153846 51.4450549 241.781469 45 244 45 242.520979 54 240.821678 54 241.230769 51.510989 241.97028 47.967033 239.358392 54 238.20979 54 237.564685 47.7692308 237.076923 51.6263736 236.683566 54 235 54 236.479021 45.032967"></polygon>
            <path d="M248.399817,53.9946765 C247.761825,54.0065247 247.14808,53.7325133 246.706101,53.2385031 C246.262478,52.663846 246.018744,51.9415352 246.016624,51.1952262 C245.994459,50.8953733 245.994459,50.5941067 246.016624,50.2942538 L246.226465,48.8301735 C246.315106,48.1076539 246.528603,47.40924 246.855987,46.7708078 C247.127588,46.2173429 247.530986,45.7510271 248.025101,45.4193491 C248.51057,45.1305953 249.059051,44.9861876 249.613897,45.0010404 C250.261985,44.9846255 250.883067,45.2796115 251.307614,45.8054801 C251.759145,46.39936 251.998329,47.1467581 251.982102,47.9131122 C252.005966,48.2290067 252.005966,48.5464565 251.982102,48.8623511 L251.802239,50.2138098 C251.70665,51.2524421 251.307988,52.2321611 250.663102,53.01326 C250.084152,53.6884638 249.253238,54.0487684 248.399817,53.9946765 Z M250.348341,48.8140847 C250.388534,48.4938785 250.413547,48.1716875 250.423284,47.848757 C250.423284,46.9638733 250.093534,46.4972983 249.508977,46.4812095 C249.08593,46.4543449 248.679242,46.6604884 248.429795,47.0282285 C248.104653,47.5634703 247.908898,48.1772485 247.860226,48.8140847 L247.665374,50.2942538 C247.648348,50.6050353 247.648348,50.9166223 247.665374,51.2274038 C247.665374,52.0640211 247.995124,52.4984186 248.59467,52.5305962 C248.998306,52.5523833 249.387633,52.3673119 249.643875,52.0318436 C249.97263,51.5164066 250.169078,50.9170988 250.213443,50.2942538 L250.348341,48.8140847 Z" fill="#051C2C" fill-rule="nonzero"></path>
            <path d="M254,53.9993156 L255.412831,45.0001064 L257.426868,45.0001064 C257.964117,44.9949941 258.489465,45.1742411 258.92988,45.512929 C259.346334,45.8527178 259.656282,46.3268446 259.816657,46.8694274 C260.000628,47.4936418 260.046995,48.1570803 259.951928,48.8049191 L259.771567,50.1117896 C259.674908,51.1793661 259.256998,52.1808099 258.584187,52.9571278 C257.952517,53.6425024 257.096263,54.0182784 256.209428,53.9993156 L254,53.9993156 Z M256.780573,46.5054888 L255.848705,52.4773905 L256.239488,52.4773905 C256.718701,52.5080064 257.187608,52.3159712 257.532079,51.9480253 C257.88173,51.4758909 258.096197,50.9001587 258.148314,50.2937589 L258.343705,48.8380044 C258.374657,48.4914436 258.374657,48.1423774 258.343705,47.7958166 C258.35716,47.4635902 258.255035,47.1382146 258.058133,46.8859701 C257.855589,46.6647289 257.57629,46.5502051 257.291597,46.5716595 L256.780573,46.5054888 Z" fill="#051C2C" fill-rule="nonzero"></path>
            <path d="M264.417156,53.9959188 C263.773361,54.012291 263.15276,53.7379164 262.706788,53.2397462 C262.262734,52.6650897 262.018762,51.9427796 262.01664,51.1964715 C261.994453,50.8966188 261.994453,50.5953526 262.01664,50.2954999 L262.226685,48.8314212 C262.320422,48.1079141 262.539211,47.4095109 262.871824,46.7720576 C263.377784,45.6495086 264.455589,44.9547722 265.617414,45.0022921 C266.270091,44.987787 266.895652,45.2820077 267.327782,45.806731 C267.763261,46.4092916 267.995911,47.1520727 267.987924,47.9143608 C268.004025,48.2305379 268.004025,48.5474217 267.987924,48.8635987 L267.792882,50.215056 C267.695559,51.2501933 267.302583,52.2278656 266.66764,53.0145033 C266.09031,53.6833276 265.265916,54.0428381 264.417156,53.9959188 Z M266.352572,48.8153324 C266.367762,48.493763 266.367762,48.1715751 266.352572,47.8500057 C266.352572,46.965123 266.022501,46.4985484 265.452379,46.4824597 C265.024276,46.4530255 264.61161,46.6591325 264.357143,47.0294781 C264.031685,47.5647193 263.83574,48.1784969 263.787021,48.8153324 L263.591979,50.2954999 C263.565802,50.6059163 263.565802,50.9182326 263.591979,51.228649 C263.591979,52.0652654 263.907046,52.4996624 264.507175,52.53184 C264.911657,52.5562673 265.302429,52.3706898 265.557401,52.0330879 C265.886477,51.5176515 266.083116,50.9183443 266.127524,50.2954999 L266.352572,48.8153324 Z" fill="#051C2C" fill-rule="nonzero"></path>
            <path d="M279.475244,50.9530685 C279.417769,51.806386 279.06572,52.6076765 278.485964,53.2047454 C277.907938,53.7649385 277.13765,54.0498388 276.355205,53.9928324 C275.707289,54.0125242 275.083942,53.7302151 274.650598,53.2208288 C274.218652,52.6333659 273.992754,51.9058458 274.01137,51.1621527 C273.99621,50.856778 273.99621,50.5507733 274.01137,50.2453986 L274.224446,48.7978919 C274.326248,47.7513235 274.730053,46.7631277 275.381144,45.9672123 C275.948482,45.3209789 276.754438,44.9685539 277.588001,45.0022079 C278.269218,44.9724574 278.925652,45.2748336 279.368706,45.8224616 C279.823194,46.4831268 280.044013,47.2913157 279.992714,48.1063054 L278.348986,48.1063054 L278.348986,47.4790526 C278.348986,46.8035495 278.044592,46.4497145 277.466243,46.4336311 C277.051224,46.4015273 276.649431,46.5956273 276.400864,46.9483001 C276.078782,47.4780708 275.895006,48.0884298 275.868174,48.7174749 L275.655098,50.2293151 C275.655098,50.7118174 275.579,51.0174021 275.579,51.1621527 C275.579,52.0306567 275.822515,52.4809921 276.431303,52.5131589 C276.769486,52.5456336 277.105369,52.4292586 277.359705,52.1914908 C277.633005,51.8331157 277.797461,51.3958404 277.831516,50.9369851 L279.475244,50.9530685 Z" fill="#051C2C" fill-rule="nonzero"></path>
            <path d="M286.018561,52.1139706 L283.663573,52.1139706 L282.900232,54 L281,54 L285.222738,45 L286.846868,45 L288,54 L286.197216,54 L286.018561,52.1139706 Z M284.313225,50.6911765 L285.937355,50.6911765 L285.645012,47.3823529 L284.313225,50.6911765 Z" fill="#051C2C" fill-rule="nonzero"></path>
          </g>
        </g>
      </g>
    </g>
  </g>
</svg>
